<svg id="visual" viewBox="0 0 960 540" width="960" height="540" xmlns="http://www.w3.org/2000/svg" xmlns:xlink="http://www.w3.org/1999/xlink" version="1.1"><rect x="0" y="0" width="960" height="540" fill="#001220"></rect><g fill="none" stroke="#A7233A" stroke-width="2"><circle r="60" cx="150" cy="352"></circle><circle r="25" cx="518" cy="387"></circle><circle r="31" cx="36" cy="271"></circle><circle r="34" cx="740" cy="500"></circle><circle r="36" cx="503" cy="101"></circle><circle r="52" cx="883" cy="193"></circle><circle r="28" cx="346" cy="264"></circle><circle r="29" cx="669" cy="326"></circle><circle r="33" cx="336" cy="94"></circle><circle r="48" cx="21" cy="27"></circle><circle r="41" cx="844" cy="415"></circle><circle r="33" cx="704" cy="180"></circle><circle r="49" cx="431" cy="489"></circle><circle r="36" cx="49" cy="456"></circle><circle r="42" cx="905" cy="61"></circle><circle r="34" cx="792" cy="303"></circle><circle r="48" cx="148" cy="105"></circle><circle r="27" cx="783" cy="27"></circle><circle r="56" cx="176" cy="515"></circle><circle r="43" cx="275" cy="383"></circle><circle r="53" cx="957" cy="363"></circle><circle r="37" cx="599" cy="9"></circle><circle r="38" cx="580" cy="220"></circle><circle r="29" cx="555" cy="520"></circle><circle r="31" cx="300" cy="507"></circle><circle r="34" cx="205" cy="241"></circle><circle r="39" cx="906" cy="534"></circle><circle r="38" cx="240" cy="8"></circle></g></svg>