<svg id="visual" viewBox="0 0 1920 1080" width="1920" height="1080" xmlns="http://www.w3.org/2000/svg" xmlns:xlink="http://www.w3.org/1999/xlink" version="1.1"><rect x="0" y="0" width="1920" height="1080" fill="#ffffff"></rect><defs><linearGradient id="grad1_0" x1="43.8%" y1="100%" x2="100%" y2="0%"><stop offset="14.444444444444446%" stop-color="#0066ff" stop-opacity="1"></stop><stop offset="85.55555555555554%" stop-color="#0066ff" stop-opacity="1"></stop></linearGradient></defs><defs><linearGradient id="grad1_1" x1="43.8%" y1="100%" x2="100%" y2="0%"><stop offset="14.444444444444446%" stop-color="#0066ff" stop-opacity="1"></stop><stop offset="85.55555555555554%" stop-color="#acafff" stop-opacity="1"></stop></linearGradient></defs><defs><linearGradient id="grad1_2" x1="43.8%" y1="100%" x2="100%" y2="0%"><stop offset="14.444444444444446%" stop-color="#ffffff" stop-opacity="1"></stop><stop offset="85.55555555555554%" stop-color="#acafff" stop-opacity="1"></stop></linearGradient></defs><defs><linearGradient id="grad2_0" x1="0%" y1="100%" x2="56.3%" y2="0%"><stop offset="14.444444444444446%" stop-color="#0066ff" stop-opacity="1"></stop><stop offset="85.55555555555554%" stop-color="#0066ff" stop-opacity="1"></stop></linearGradient></defs><defs><linearGradient id="grad2_1" x1="0%" y1="100%" x2="56.3%" y2="0%"><stop offset="14.444444444444446%" stop-color="#acafff" stop-opacity="1"></stop><stop offset="85.55555555555554%" stop-color="#0066ff" stop-opacity="1"></stop></linearGradient></defs><defs><linearGradient id="grad2_2" x1="0%" y1="100%" x2="56.3%" y2="0%"><stop offset="14.444444444444446%" stop-color="#acafff" stop-opacity="1"></stop><stop offset="85.55555555555554%" stop-color="#ffffff" stop-opacity="1"></stop></linearGradient></defs><g transform="translate(1920, 1080)"><path d="M-540 0C-527 -96.4 -514 -192.8 -467.7 -270C-421.3 -347.2 -341.5 -405.1 -258 -446.9C-174.5 -488.7 -87.2 -514.3 0 -540L0 0Z" fill="#d7d6ff"></path><path d="M-360 0C-351.3 -64.3 -342.7 -128.6 -311.8 -180C-280.9 -231.4 -227.7 -270.1 -172 -297.9C-116.3 -325.8 -58.2 -342.9 0 -360L0 0Z" fill="#7789ff"></path><path d="M-180 0C-175.7 -32.1 -171.3 -64.3 -155.9 -90C-140.4 -115.7 -113.8 -135 -86 -149C-58.2 -162.9 -29.1 -171.4 0 -180L0 0Z" fill="#0066ff"></path></g><g transform="translate(0, 0)"><path d="M540 0C529.5 100.7 519 201.4 467.7 270C416.3 338.6 324.2 375.2 239.5 414.8C154.8 454.5 77.4 497.2 0 540L0 0Z" fill="#d7d6ff"></path><path d="M360 0C353 67.1 346 134.3 311.8 180C277.6 225.7 216.2 250.1 159.7 276.6C103.2 303 51.6 331.5 0 360L0 0Z" fill="#7789ff"></path><path d="M180 0C176.5 33.6 173 67.1 155.9 90C138.8 112.9 108.1 125.1 79.8 138.3C51.6 151.5 25.8 165.7 0 180L0 0Z" fill="#0066ff"></path></g></svg>