<svg id="visual" viewBox="0 0 1920 600" width="1920" height="600" xmlns="http://www.w3.org/2000/svg" xmlns:xlink="http://www.w3.org/1999/xlink" version="1.1"><path d="M1708 600L1653.5 550C1599 500 1490 400 1493.2 300C1496.3 200 1611.7 100 1669.3 50L1727 0L1920 0L1920 50C1920 100 1920 200 1920 300C1920 400 1920 500 1920 550L1920 600Z" fill="#6198ff"></path><path d="M1055 600L991 550C927 500 799 400 757.3 300C715.7 200 760.3 100 782.7 50L805 0L1728 0L1670.3 50C1612.7 100 1497.3 200 1494.2 300C1491 400 1600 500 1654.5 550L1709 600Z" fill="#2d77ff"></path><path d="M268 600L277.5 550C287 500 306 400 309.2 300C312.3 200 299.7 100 293.3 50L287 0L806 0L783.7 50C761.3 100 716.7 200 758.3 300C800 400 928 500 992 550L1056 600Z" fill="#005de8"></path><path d="M0 600L0 550C0 500 0 400 0 300C0 200 0 100 0 50L0 0L288 0L294.3 50C300.7 100 313.3 200 310.2 300C307 400 288 500 278.5 550L269 600Z" fill="#004cbb"></path></svg>