<svg id="visual" viewBox="0 0 1400 386" width="1400" height="386" xmlns="http://www.w3.org/2000/svg" xmlns:xlink="http://www.w3.org/1999/xlink" version="1.1"><rect x="0" y="0" width="1400" height="386" fill="#001220"></rect><defs><linearGradient id="grad1_0" x1="72.4%" y1="100%" x2="100%" y2="0%"><stop offset="-22.538860103626945%" stop-color="#001220" stop-opacity="1"></stop><stop offset="122.53886010362693%" stop-color="#001220" stop-opacity="1"></stop></linearGradient></defs><defs><linearGradient id="grad2_0" x1="0%" y1="100%" x2="27.6%" y2="0%"><stop offset="-22.538860103626945%" stop-color="#001220" stop-opacity="1"></stop><stop offset="122.53886010362693%" stop-color="#001220" stop-opacity="1"></stop></linearGradient></defs><g transform="translate(1400, 386)"><path d="M-250.9 0C-244.3 -43.7 -237.6 -87.5 -217.3 -125.5C-197 -163.4 -163 -195.7 -124.5 -215.6C-86 -235.6 -43 -243.2 0 -250.9L0 0Z" fill="#4700D8"></path></g><g transform="translate(0, 0)"><path d="M250.9 0C239.6 40.9 228.2 81.7 208.7 120.5C189.2 159.3 161.6 195.9 125.5 217.3C89.3 238.7 44.7 244.8 0 250.9L0 0Z" fill="#4700D8"></path></g></svg>