<?xml version="1.0" standalone="no"?>
<svg xmlns:xlink="http://www.w3.org/1999/xlink" id="wave" style="transform:rotate(0deg); transition: 0.3s" viewBox="0 0 1440 240" version="1.1" xmlns="http://www.w3.org/2000/svg"><defs><linearGradient id="sw-gradient-0" x1="0" x2="0" y1="1" y2="0"><stop stop-color="rgba(43.176, 39.681, 255, 1)" offset="0%"/><stop stop-color="rgba(163.821, 156.467, 244.043, 1)" offset="100%"/></linearGradient></defs><path style="transform:translate(0, 0px); opacity:1" fill="url(#sw-gradient-0)" d="M0,168L34.3,168C68.6,168,137,168,206,144C274.3,120,343,72,411,72C480,72,549,120,617,120C685.7,120,754,72,823,52C891.4,32,960,40,1029,72C1097.1,104,1166,160,1234,176C1302.9,192,1371,168,1440,140C1508.6,112,1577,80,1646,80C1714.3,80,1783,112,1851,116C1920,120,1989,96,2057,100C2125.7,104,2194,136,2263,124C2331.4,112,2400,56,2469,40C2537.1,24,2606,48,2674,52C2742.9,56,2811,40,2880,64C2948.6,88,3017,152,3086,180C3154.3,208,3223,200,3291,172C3360,144,3429,96,3497,100C3565.7,104,3634,160,3703,164C3771.4,168,3840,120,3909,112C3977.1,104,4046,136,4114,140C4182.9,144,4251,120,4320,108C4388.6,96,4457,96,4526,92C4594.3,88,4663,80,4731,72C4800,64,4869,56,4903,52L4937.1,48L4937.1,240L4902.9,240C4868.6,240,4800,240,4731,240C4662.9,240,4594,240,4526,240C4457.1,240,4389,240,4320,240C4251.4,240,4183,240,4114,240C4045.7,240,3977,240,3909,240C3840,240,3771,240,3703,240C3634.3,240,3566,240,3497,240C3428.6,240,3360,240,3291,240C3222.9,240,3154,240,3086,240C3017.1,240,2949,240,2880,240C2811.4,240,2743,240,2674,240C2605.7,240,2537,240,2469,240C2400,240,2331,240,2263,240C2194.3,240,2126,240,2057,240C1988.6,240,1920,240,1851,240C1782.9,240,1714,240,1646,240C1577.1,240,1509,240,1440,240C1371.4,240,1303,240,1234,240C1165.7,240,1097,240,1029,240C960,240,891,240,823,240C754.3,240,686,240,617,240C548.6,240,480,240,411,240C342.9,240,274,240,206,240C137.1,240,69,240,34,240L0,240Z"/></svg>