<?xml version="1.0" standalone="no"?>
<svg xmlns:xlink="http://www.w3.org/1999/xlink" id="wave" style="transform:rotate(0deg); transition: 0.3s" viewBox="0 0 1440 340" version="1.1" xmlns="http://www.w3.org/2000/svg"><defs><linearGradient id="sw-gradient-0" x1="0" x2="0" y1="1" y2="0"><stop stop-color="rgba(58.096, 104.888, 241.766, 1)" offset="0%"/><stop stop-color="rgba(198.406, 190.845, 255, 1)" offset="100%"/></linearGradient></defs><path style="transform:translate(0, 0px); opacity:1" fill="url(#sw-gradient-0)" d="M0,170L40,141.7C80,113,160,57,240,51C320,45,400,91,480,136C560,181,640,227,720,243.7C800,261,880,249,960,232.3C1040,215,1120,193,1200,198.3C1280,204,1360,238,1440,226.7C1520,215,1600,159,1680,124.7C1760,91,1840,79,1920,85C2000,91,2080,113,2160,107.7C2240,102,2320,68,2400,96.3C2480,125,2560,215,2640,238C2720,261,2800,215,2880,175.7C2960,136,3040,102,3120,90.7C3200,79,3280,91,3360,79.3C3440,68,3520,34,3600,68C3680,102,3760,204,3840,221C3920,238,4000,170,4080,164.3C4160,159,4240,215,4320,215.3C4400,215,4480,159,4560,124.7C4640,91,4720,79,4800,90.7C4880,102,4960,136,5040,124.7C5120,113,5200,57,5280,45.3C5360,34,5440,68,5520,113.3C5600,159,5680,215,5720,243.7L5760,272L5760,340L5720,340C5680,340,5600,340,5520,340C5440,340,5360,340,5280,340C5200,340,5120,340,5040,340C4960,340,4880,340,4800,340C4720,340,4640,340,4560,340C4480,340,4400,340,4320,340C4240,340,4160,340,4080,340C4000,340,3920,340,3840,340C3760,340,3680,340,3600,340C3520,340,3440,340,3360,340C3280,340,3200,340,3120,340C3040,340,2960,340,2880,340C2800,340,2720,340,2640,340C2560,340,2480,340,2400,340C2320,340,2240,340,2160,340C2080,340,2000,340,1920,340C1840,340,1760,340,1680,340C1600,340,1520,340,1440,340C1360,340,1280,340,1200,340C1120,340,1040,340,960,340C880,340,800,340,720,340C640,340,560,340,480,340C400,340,320,340,240,340C160,340,80,340,40,340L0,340Z"/></svg>